# xmcd
#
# Track frame offsets: 
#        150
#        24595
#        43289
#        65803
#        87994
#        112756
#        129007
#        143558
#        167366
#        189460
#        213022
#        225592
#        244466
#        263634
#        284081
#        301622
#        314880
#        333154
#
# Disc length: 4614 seconds
#
# Revision: 1
# Processed by: cddbd v1.5.2PL0 Copyright (c) Steve Scherf et al.
# Submitted via: ExactAudioCopy v0.95b4
#
DISCID=f9120412
DTITLE=Various Artist - Electronic Body Matrix CD4
DYEAR=2011
DGENRE=Industrial
TTITLE0=Llumen - Cold In December (Eternal Winter Mix)
TTITLE1=Technoir - Human Shapes (Rough Mix) 
TTITLE2=Dupont - Entering The Ice Age 
TTITLE3=Bruderschaft - Forever (Colony 5 Mix) 
TTITLE4=Assemblage 23 - Collapse 
TTITLE5=Autodafeh - Love, Hate And Pain 
TTITLE6=Kant Kino - Owner Of This House Lives Here (Club Mix) 
TTITLE7=[De:Ad:Cibel] - Too Tired To Consume 
TTITLE8=IC 434 - Sangre De Toro 
TTITLE9=Der Prager Handgriff - Vorwärts 
TTITLE10=Plastic Noise Experience - Headcrash 
TTITLE11=Ayria - Blue Alice (Dead When I Found Her Mix)
TTITLE12=Uberbyte - Money Shot (Club Mix) 
TTITLE13=Noisuf-X - Fucking Invective 
TTITLE14=Alien Vampires - She's On Drugs (More Than Me) 
TTITLE15=Pouppee Fabrikk - Symptom (Disease Mix) 
TTITLE16=Jäger 90 - Der Verzicht 
TTITLE17=Haushetaere - Sunshine Is My Destroyer (Darkmen Mix)
EXTD=
EXTT0=
EXTT1=
EXTT2=
EXTT3=
EXTT4=
EXTT5=
EXTT6=
EXTT7=
EXTT8=
EXTT9=
EXTT10=
EXTT11=
EXTT12=
EXTT13=
EXTT14=
EXTT15=
EXTT16=
EXTT17=
PLAYORDER=
